<svg width="117" height="14" viewBox="0 0 117 14" fill="none" xmlns="http://www.w3.org/2000/svg">
<g clip-path="url(#clip0_593_8626)">
<path d="M0.0948921 12.6689V9.78645C0.903412 10.4122 3.14112 11.5082 4.86274 11.5082C5.5783 11.5082 6.46912 11.378 6.46912 10.7569C6.46912 10.1359 5.49406 9.90635 3.81021 9.57099C1.26361 9.0567 0 8.16677 0 6.44593C0 4.37005 1.93657 3.18317 4.65165 3.18317C6.48268 3.18317 7.75791 3.61127 8.946 4.34663V6.84125C6.9155 5.65155 5.36721 5.63563 4.65165 5.63563C3.48099 5.63563 3.0656 6.01127 3.0656 6.42626C3.0656 7.1382 4.50447 7.17755 6.01984 7.55319C8.48316 8.16584 9.51439 9.2731 9.51439 10.816C9.51439 13.2684 6.92519 13.9991 4.86274 13.9991C3.44516 13.9991 1.71096 13.6356 0.0948921 12.6679V12.6689Z" fill="black"/>
<path d="M39.2735 3.18317C36.1866 3.18317 33.6836 5.60471 33.6836 8.59113C33.6836 11.5775 36.1866 13.9991 39.2735 13.9991C42.3604 13.9991 44.8634 11.5775 44.8634 8.59113C44.8634 5.60471 42.3604 3.18317 39.2735 3.18317ZM39.2735 11.3893C37.6787 11.3893 36.4529 10.0843 36.4529 8.58176C36.4529 7.07919 37.6787 5.79394 39.2735 5.79394C40.8683 5.79394 42.0941 7.05951 42.0941 8.58176C42.0941 10.104 40.8683 11.3893 39.2735 11.3893Z" fill="black"/>
<path d="M27.9117 11.3893C26.3179 11.3893 25.0911 10.0843 25.0911 8.58177C25.0911 7.07919 26.3169 5.79395 27.9117 5.79395C29.0359 5.79395 29.9044 6.44594 30.3343 7.37615L33.032 6.62486C32.2148 4.58833 30.2424 3.18411 27.9117 3.18411C24.8248 3.18411 22.3218 5.60566 22.3218 8.59208C22.3218 11.5785 24.8248 14 27.9117 14C30.283 14 32.2341 12.5762 33.032 10.579L30.3343 9.82767C29.9257 10.7569 29.0572 11.3893 27.9117 11.3893Z" fill="black"/>
<path d="M21.3129 7.49417C20.7813 5.02298 18.5223 3.18317 15.8653 3.18317C12.7784 3.18317 10.2754 5.60471 10.2754 8.59113C10.2754 11.5775 12.7784 13.9991 15.8653 13.9991C17.8455 13.9991 20.1025 12.9921 20.9827 11.2946L18.41 10.578C17.736 11.171 16.7639 11.4679 15.8643 11.4679C14.5969 11.4679 13.5453 10.875 13.1977 9.66841H21.3323C21.5162 8.91712 21.4756 8.16584 21.3119 7.49324L21.3129 7.49417ZM13.1986 7.49417C13.5056 6.5649 14.4749 5.71431 15.8653 5.71431C17.2558 5.71431 18.1447 6.5649 18.4516 7.49417H13.1986Z" fill="black"/>
<path d="M65.8599 0V4.33068C65.1385 3.59063 64.1024 3.18408 62.8766 3.18408C59.9533 3.18408 57.521 5.55691 57.521 8.60234C57.521 11.6478 59.9533 14.0009 62.8766 14.0009C64.1024 14.0009 65.1395 13.5738 65.8599 12.8347L66.4622 13.8436H68.8238V0H65.8599ZM63.1622 11.4098C61.5065 11.4098 60.2806 10.1049 60.2806 8.60234C60.2806 7.09977 61.5065 5.77518 63.1622 5.77518C64.818 5.77518 66.0642 7.09977 66.0642 8.60234C66.0642 10.1049 64.7357 11.4098 63.1622 11.4098Z" fill="black"/>
<path d="M45.9502 3.3621H48.3361L48.9141 4.33072C49.6094 3.67779 50.6106 3.18411 51.9391 3.18411C54.2891 3.18411 56.4358 4.74664 56.4358 7.33681V13.8427H53.4718V8.06842C53.4718 6.72322 52.491 5.8539 51.3261 5.8539C49.834 5.8539 48.9141 7.02018 48.9141 8.42439V13.8427H45.9502V3.3621Z" fill="black"/>
<path d="M83.0381 3.36206L81.5663 10.9649L79.7886 3.36206H76.2311L74.4533 10.9649L72.9825 3.36206H70.0186L72.4712 13.8417H76.3134L78.0098 6.01218L79.7063 13.8417H83.5484L86.0011 3.36206H83.0381Z" fill="black"/>
<path d="M97.2567 7.49417C96.7251 5.02298 94.4661 3.18317 91.8092 3.18317C88.7223 3.18317 86.2192 5.60471 86.2192 8.59113C86.2192 11.5775 88.7223 13.9991 91.8092 13.9991C93.7893 13.9991 96.0464 12.9921 96.9266 11.2946L94.3538 10.578C93.6799 11.171 92.7077 11.4679 91.8082 11.4679C90.5407 11.4679 89.4891 10.875 89.1415 9.66841H97.2761C97.4601 8.91712 97.4194 8.16584 97.2558 7.49324L97.2567 7.49417ZM89.1425 7.49417C89.4494 6.5649 90.4187 5.71431 91.8092 5.71431C93.1996 5.71431 94.0885 6.5649 94.3955 7.49417H89.1425Z" fill="black"/>
<path d="M110.132 3.36206H112.258L113.096 4.76627C113.709 3.81733 114.935 3.00609 117 3.32271V6.38782C115.143 5.72553 113.096 6.56862 113.096 8.58267V13.8417H110.132V3.36206Z" fill="black"/>
<path d="M103.459 3.18317C100.761 3.18317 98.5126 4.56771 98.5126 6.74289L101.333 6.70354C101.64 5.83328 102.58 5.61595 103.52 5.61595C104.726 5.61595 105.625 5.97193 105.625 6.94054V7.43516H102.539C100.106 7.43516 98.2666 8.28574 98.2666 10.6586C98.2666 13.4267 100.842 14 102.375 14C103.908 14 105.113 13.3874 105.625 12.8338L106.227 13.8427H108.395V6.92837C108.395 4.30073 106.454 3.1841 103.46 3.1841L103.459 3.18317ZM102.62 11.6656C102.13 11.6656 101.332 11.5466 101.23 10.7363C101.128 9.9457 101.843 9.45108 103.09 9.45108H105.624C105.624 10.7167 104.029 11.6656 102.619 11.6656H102.62Z" fill="black"/>
</g>
<defs>
<clipPath id="clip0_593_8626">
<rect width="117" height="14" fill="white"/>
</clipPath>
</defs>
</svg>
