<svg width="30" height="17" viewBox="0 0 30 17" fill="none" xmlns="http://www.w3.org/2000/svg">
<rect width="30" height="17" rx="4" fill="#FFEAEA"/>
<path d="M6.495 11.703C6.39967 11.6223 6.33367 11.5233 6.297 11.406C6.26033 11.2887 6.242 11.1603 6.242 11.021C6.242 10.933 6.24567 10.845 6.253 10.757C6.26767 10.6617 6.28233 10.5663 6.297 10.471C6.35567 10.1777 6.45467 9.82933 6.594 9.426C6.74067 9.02267 6.90567 8.601 7.089 8.161C7.27967 7.721 7.47033 7.29567 7.661 6.885C7.859 6.467 8.035 6.10033 8.189 5.785C8.35033 5.46233 8.47133 5.224 8.552 5.07C8.58133 5.01133 8.607 4.95633 8.629 4.905C8.65833 4.85367 8.68767 4.806 8.717 4.762L8.321 4.817C7.991 4.861 7.65 4.93067 7.298 5.026C6.95333 5.12133 6.64167 5.246 6.363 5.4C6.09167 5.54667 5.89367 5.72633 5.769 5.939C5.76167 5.961 5.747 5.972 5.725 5.972C5.71033 5.972 5.69933 5.95733 5.692 5.928C5.67733 5.89867 5.67367 5.86567 5.681 5.829C5.75433 5.63833 5.846 5.455 5.956 5.279C6.066 5.103 6.17233 4.96367 6.275 4.861C6.43633 4.69233 6.65633 4.57133 6.935 4.498C7.21367 4.42467 7.49967 4.377 7.793 4.355C8.09367 4.333 8.35033 4.322 8.563 4.322H10.73C11.236 4.322 11.6393 4.399 11.94 4.553C12.248 4.707 12.468 4.91233 12.6 5.169C12.732 5.41833 12.7833 5.686 12.754 5.972C12.7247 6.28 12.6367 6.54767 12.49 6.775C12.3433 7.00233 12.16 7.19667 11.94 7.358C11.7273 7.512 11.5037 7.63667 11.269 7.732C11.0417 7.82 10.829 7.886 10.631 7.93C11.247 8.04733 11.687 8.249 11.951 8.535C12.215 8.821 12.347 9.162 12.347 9.558C12.347 9.87333 12.27 10.1703 12.116 10.449C11.9693 10.7203 11.7677 10.966 11.511 11.186C11.291 11.3767 11.0013 11.549 10.642 11.703C10.2827 11.8497 9.894 11.967 9.476 12.055C9.058 12.143 8.64367 12.187 8.233 12.187C7.88833 12.187 7.562 12.1467 7.254 12.066C6.946 11.9927 6.693 11.8717 6.495 11.703ZM7.837 11.703C7.93967 11.7177 8.04233 11.7287 8.145 11.736C8.24767 11.7433 8.35033 11.747 8.453 11.747C8.81233 11.747 9.16433 11.6957 9.509 11.593C9.85367 11.483 10.1543 11.3107 10.411 11.076C10.675 10.8413 10.862 10.5333 10.972 10.152C11.038 9.93933 11.071 9.723 11.071 9.503C11.071 9.15833 10.983 8.85033 10.807 8.579C10.6383 8.30033 10.3707 8.139 10.004 8.095C9.92333 8.117 9.80233 8.14267 9.641 8.172C9.47967 8.20133 9.311 8.227 9.135 8.249C8.959 8.271 8.80867 8.282 8.684 8.282C8.56667 8.282 8.508 8.25633 8.508 8.205C8.508 8.161 8.541 8.10967 8.607 8.051C8.673 7.985 8.74633 7.93 8.827 7.886C8.90767 7.83467 8.97367 7.80533 9.025 7.798C9.157 7.776 9.311 7.765 9.487 7.765C9.58233 7.765 9.67767 7.76867 9.773 7.776C9.87567 7.78333 9.982 7.79433 10.092 7.809C10.3267 7.73567 10.521 7.63667 10.675 7.512C10.829 7.38733 10.961 7.27 11.071 7.16C11.247 6.97667 11.3827 6.76767 11.478 6.533C11.5733 6.291 11.621 6.05633 11.621 5.829C11.621 5.52833 11.5477 5.29733 11.401 5.136C11.2617 4.96733 11.0747 4.84633 10.84 4.773C10.6053 4.69967 10.3523 4.65933 10.081 4.652C9.949 4.828 9.80967 5.037 9.663 5.279C9.52367 5.51367 9.39167 5.75567 9.267 6.005C9.14233 6.25433 9.03233 6.48533 8.937 6.698C8.73167 7.138 8.51533 7.61833 8.288 8.139C8.068 8.65967 7.88467 9.16567 7.738 9.657C7.66467 9.88433 7.59133 10.13 7.518 10.394C7.452 10.6507 7.419 10.8817 7.419 11.087C7.419 11.2483 7.44833 11.384 7.507 11.494C7.56567 11.604 7.67567 11.6737 7.837 11.703ZM15.3286 11.846C14.9913 12.022 14.6356 12.11 14.2616 12.11C13.9463 12.11 13.6529 12.033 13.3816 11.879C13.1103 11.725 12.9269 11.4793 12.8316 11.142C12.7876 10.988 12.7656 10.8267 12.7656 10.658C12.7656 10.3793 12.8133 10.0933 12.9086 9.8C13.0113 9.49933 13.1433 9.22433 13.3046 8.975C13.5539 8.58633 13.8693 8.26367 14.2506 8.007C14.6319 7.75033 15.0536 7.622 15.5156 7.622C15.8603 7.622 16.1279 7.71 16.3186 7.886C16.5093 8.062 16.6046 8.26733 16.6046 8.502C16.6046 8.78067 16.5093 9.02633 16.3186 9.239C16.1353 9.44433 15.8933 9.602 15.5926 9.712C15.4459 9.76333 15.2883 9.80367 15.1196 9.833C14.9583 9.855 14.8043 9.866 14.6576 9.866C14.3569 9.866 14.1259 9.82567 13.9646 9.745C13.8253 10.1043 13.7556 10.4343 13.7556 10.735C13.7556 11.0063 13.8179 11.23 13.9426 11.406C14.0673 11.5747 14.2653 11.659 14.5366 11.659C14.7639 11.659 14.9876 11.5967 15.2076 11.472C15.4349 11.3473 15.6439 11.1933 15.8346 11.01C16.0326 10.8267 16.1976 10.6507 16.3296 10.482C16.4323 10.3573 16.5203 10.24 16.5936 10.13C16.6669 10.02 16.7439 9.89533 16.8246 9.756C16.9053 9.60933 17.0006 9.42967 17.1106 9.217C17.1399 9.16567 17.1656 9.14 17.1876 9.14C17.2316 9.14 17.2536 9.19867 17.2536 9.316C17.2536 9.382 17.2426 9.45533 17.2206 9.536C17.2059 9.60933 17.1766 9.68633 17.1326 9.767C17.0299 9.95033 16.9053 10.152 16.7586 10.372C16.6193 10.5847 16.4763 10.79 16.3296 10.988C16.1976 11.164 16.0473 11.3253 15.8786 11.472C15.7099 11.6187 15.5266 11.7433 15.3286 11.846ZM14.3276 9.503C14.3643 9.525 14.4046 9.53967 14.4486 9.547C14.4926 9.55433 14.5366 9.558 14.5806 9.558C14.7273 9.558 14.8739 9.525 15.0206 9.459C15.1673 9.38567 15.2919 9.31233 15.3946 9.239C15.5633 9.12167 15.7063 8.98233 15.8236 8.821C15.9409 8.65967 16.0069 8.47633 16.0216 8.271C16.0289 8.183 16.0069 8.10967 15.9556 8.051C15.9116 7.985 15.8309 7.952 15.7136 7.952C15.6549 7.952 15.5816 7.963 15.4936 7.985C15.3763 8.01433 15.2589 8.06933 15.1416 8.15C15.0243 8.23067 14.9106 8.326 14.8006 8.436C14.7639 8.47267 14.6979 8.546 14.6026 8.656C14.5146 8.75867 14.4303 8.876 14.3496 9.008C14.2689 9.13267 14.2286 9.24267 14.2286 9.338C14.2286 9.41867 14.2616 9.47367 14.3276 9.503ZM17.599 12.066C17.3863 12.066 17.225 11.9817 17.115 11.813C17.0637 11.7323 17.027 11.637 17.005 11.527C16.983 11.417 16.972 11.3033 16.972 11.186C16.972 11.0687 16.9793 10.9513 16.994 10.834C17.0087 10.7093 17.027 10.5883 17.049 10.471C17.0857 10.2803 17.126 10.108 17.17 9.954C17.2213 9.79267 17.2727 9.63867 17.324 9.492V9.481C17.2653 9.591 17.192 9.712 17.104 9.844C17.016 9.96867 16.9537 10.0603 16.917 10.119C16.8657 10.1997 16.8253 10.24 16.796 10.24C16.7667 10.24 16.752 10.207 16.752 10.141C16.752 9.99433 16.796 9.833 16.884 9.657C16.9427 9.53967 17.0233 9.38933 17.126 9.206C17.2287 9.01533 17.335 8.81 17.445 8.59C17.555 8.37 17.6503 8.15733 17.731 7.952H16.994C16.9573 7.952 16.95 7.92267 16.972 7.864C16.994 7.80533 17.027 7.75033 17.071 7.699C17.115 7.64033 17.148 7.611 17.17 7.611H18.006C18.0867 7.42033 18.1783 7.215 18.281 6.995C18.391 6.775 18.512 6.56967 18.644 6.379C18.7833 6.181 18.9337 6.01967 19.095 5.895C19.2563 5.77033 19.4287 5.708 19.612 5.708C19.6927 5.708 19.7917 5.708 19.909 5.708C20.0337 5.708 20.1107 5.70433 20.14 5.697C19.986 5.79967 19.8063 6.005 19.601 6.313C19.3957 6.61367 19.172 7.04633 18.93 7.611H20.041C20.063 7.611 20.0557 7.64033 20.019 7.699C19.9823 7.75033 19.9347 7.80533 19.876 7.864C19.8247 7.92267 19.7733 7.952 19.722 7.952H18.776C18.6807 8.194 18.5743 8.458 18.457 8.744C18.347 9.03 18.2443 9.31233 18.149 9.591C18.061 9.86233 17.995 10.1117 17.951 10.339C17.9217 10.4783 17.907 10.6067 17.907 10.724C17.907 11.0027 17.995 11.142 18.171 11.142C18.2883 11.142 18.4277 11.0833 18.589 10.966C18.7503 10.8487 18.9117 10.6873 19.073 10.482C19.2197 10.2913 19.359 10.086 19.491 9.866C19.6303 9.646 19.7477 9.44433 19.843 9.261C19.8723 9.20967 19.898 9.184 19.92 9.184C19.964 9.184 19.986 9.24267 19.986 9.36C19.986 9.41867 19.975 9.48833 19.953 9.569C19.9383 9.64233 19.909 9.71567 19.865 9.789C19.7623 9.965 19.6413 10.1593 19.502 10.372C19.3627 10.5773 19.2197 10.7827 19.073 10.988C18.9703 11.12 18.8347 11.2703 18.666 11.439C18.5047 11.6077 18.3287 11.7543 18.138 11.879C17.9547 12.0037 17.775 12.066 17.599 12.066ZM22.8022 12.066C22.5749 12.066 22.4172 11.978 22.3292 11.802C22.2486 11.626 22.2082 11.4097 22.2082 11.153C22.2082 10.9183 22.2302 10.6873 22.2742 10.46C22.2962 10.3573 22.3182 10.2547 22.3402 10.152C22.3696 10.042 22.4026 9.92833 22.4392 9.811C22.3146 10.0383 22.1826 10.2583 22.0432 10.471C21.9112 10.6837 21.7756 10.8707 21.6362 11.032C21.4016 11.318 21.1522 11.5563 20.8882 11.747C20.6316 11.9377 20.3749 12.033 20.1182 12.033C19.9129 12.033 19.7369 11.9597 19.5902 11.813C19.4509 11.659 19.3812 11.395 19.3812 11.021C19.3812 10.6397 19.4472 10.2473 19.5792 9.844C19.7112 9.44067 19.8946 9.06667 20.1292 8.722C20.3712 8.37 20.6536 8.08767 20.9762 7.875C21.3062 7.66233 21.6656 7.556 22.0542 7.556C22.1789 7.556 22.3146 7.57433 22.4612 7.611C22.6079 7.64767 22.7436 7.71733 22.8682 7.82C22.9929 7.91533 23.0772 8.051 23.1212 8.227C23.1286 8.21233 23.1359 8.20133 23.1432 8.194C23.1579 8.18667 23.1689 8.17933 23.1762 8.172C23.2789 8.01067 23.3962 7.875 23.5282 7.765C23.6602 7.655 23.8069 7.6 23.9682 7.6C24.0489 7.6 24.1626 7.60367 24.3092 7.611C24.4559 7.61833 24.5622 7.61833 24.6282 7.611C24.5916 7.64033 24.5402 7.699 24.4742 7.787C24.4156 7.875 24.3606 7.96667 24.3092 8.062C24.2579 8.15 24.2176 8.21967 24.1882 8.271C23.9902 8.65233 23.8106 9.03 23.6492 9.404C23.4879 9.778 23.3632 10.1373 23.2752 10.482C23.2532 10.5553 23.2386 10.625 23.2312 10.691C23.2239 10.7497 23.2202 10.8083 23.2202 10.867C23.2202 11.0577 23.2826 11.153 23.4072 11.153C23.5246 11.153 23.6712 11.0797 23.8472 10.933C24.1039 10.7277 24.3276 10.471 24.5182 10.163C24.7162 9.855 24.8886 9.558 25.0352 9.272C25.0646 9.22067 25.0902 9.195 25.1122 9.195C25.1562 9.195 25.1782 9.25733 25.1782 9.382C25.1782 9.44067 25.1672 9.50667 25.1452 9.58C25.1306 9.65333 25.1049 9.723 25.0682 9.789C24.9656 9.965 24.8299 10.1813 24.6612 10.438C24.4999 10.6947 24.3166 10.9477 24.1112 11.197C23.9059 11.439 23.6896 11.6443 23.4622 11.813C23.2422 11.9817 23.0222 12.066 22.8022 12.066ZM20.6132 11.109C20.6352 11.1163 20.6682 11.12 20.7122 11.12C20.8516 11.12 21.0019 11.0613 21.1632 10.944C21.3246 10.8267 21.4859 10.6763 21.6472 10.493C21.8086 10.3023 21.9516 10.1117 22.0762 9.921C22.3989 9.40767 22.6372 9.02267 22.7912 8.766C22.9452 8.50933 23.0332 8.36267 23.0552 8.326C23.0186 8.20133 22.9526 8.10967 22.8572 8.051C22.7692 7.99233 22.6629 7.963 22.5382 7.963C22.3769 7.963 22.2046 8.007 22.0212 8.095C21.8452 8.183 21.6949 8.28933 21.5702 8.414C21.3796 8.60467 21.1962 8.85033 21.0202 9.151C20.8516 9.45167 20.7122 9.74867 20.6022 10.042C20.4996 10.3353 20.4482 10.581 20.4482 10.779C20.4482 10.9623 20.5032 11.0723 20.6132 11.109Z" fill="#FF6666"/>
</svg>
