<svg width="115" height="14" viewBox="0 0 115 14" fill="none" xmlns="http://www.w3.org/2000/svg">
<path d="M0.0928059 12.668V9.78576C0.88355 10.4115 3.07206 11.5074 4.75583 11.5074C5.45566 11.5074 6.3269 11.3772 6.3269 10.7562C6.3269 10.1352 5.37327 9.90566 3.72644 9.57032C1.23583 9.05607 0 8.1662 0 6.44547C0 4.36973 1.894 3.18292 4.54938 3.18292C6.34016 3.18292 7.58736 3.611 8.74932 4.34631V6.84076C6.76347 5.65114 5.24922 5.63522 4.54938 5.63522C3.40446 5.63522 2.9982 6.01084 2.9982 6.4258C2.9982 7.13769 4.40544 7.17703 5.88749 7.55265C8.29666 8.16526 9.30521 9.27244 9.30521 10.8152C9.30521 13.2675 6.77294 13.9981 4.75583 13.9981C3.36942 13.9981 1.67335 13.6347 0.0928059 12.6671V12.668Z" fill="white"/>
<path d="M38.4104 3.18292C35.3914 3.18292 32.9434 5.60431 32.9434 8.59052C32.9434 11.5767 35.3914 13.9981 38.4104 13.9981C41.4294 13.9981 43.8774 11.5767 43.8774 8.59052C43.8774 5.60431 41.4294 3.18292 38.4104 3.18292ZM38.4104 11.3885C36.8507 11.3885 35.6518 10.0836 35.6518 8.58116C35.6518 7.07868 36.8507 5.79352 38.4104 5.79352C39.9701 5.79352 41.169 7.05901 41.169 8.58116C41.169 10.1033 39.9701 11.3885 38.4104 11.3885Z" fill="white"/>
<path d="M27.2981 11.3885C25.7393 11.3885 24.5395 10.0836 24.5395 8.58116C24.5395 7.07869 25.7384 5.79353 27.2981 5.79353C28.3975 5.79353 29.247 6.44548 29.6675 7.37562L32.3058 6.62439C31.5065 4.58799 29.5775 3.18387 27.2981 3.18387C24.279 3.18387 21.8311 5.60525 21.8311 8.59147C21.8311 11.5777 24.279 13.9991 27.2981 13.9991C29.6173 13.9991 31.5255 12.5753 32.3058 10.5782L29.6675 9.82698C29.2678 10.7562 28.4184 11.3885 27.2981 11.3885Z" fill="white"/>
<path d="M20.8444 7.49364C20.3245 5.02261 18.1152 3.18292 15.5166 3.18292C12.4976 3.18292 10.0496 5.60431 10.0496 8.59052C10.0496 11.5767 12.4976 13.9981 15.5166 13.9981C17.4532 13.9981 19.6607 12.9912 20.5215 11.2939L18.0053 10.5773C17.3462 11.1702 16.3954 11.4671 15.5156 11.4671C14.276 11.4671 13.2476 10.8742 12.9076 9.66773H20.8633C21.0433 8.9165 21.0035 8.16526 20.8435 7.4927L20.8444 7.49364ZM12.9085 7.49364C13.2087 6.56443 14.1567 5.7139 15.5166 5.7139C16.8765 5.7139 17.7458 6.56443 18.046 7.49364H12.9085Z" fill="white"/>
<path d="M64.4119 0V4.33039C63.7064 3.59039 62.6931 3.18386 61.4942 3.18386C58.6352 3.18386 56.2563 5.55654 56.2563 8.60177C56.2563 11.647 58.6352 14 61.4942 14C62.6931 14 63.7073 13.5729 64.4119 12.8338L65.0009 13.8426H67.3107V0H64.4119ZM61.7736 11.4091C60.1542 11.4091 58.9553 10.1042 58.9553 8.60177C58.9553 7.09929 60.1542 5.77479 61.7736 5.77479C63.3929 5.77479 64.6117 7.09929 64.6117 8.60177C64.6117 10.1042 63.3124 11.4091 61.7736 11.4091Z" fill="white"/>
<path d="M44.9397 3.36184H47.2731L47.8385 4.3304C48.5184 3.67751 49.4976 3.18387 50.7969 3.18387C53.0953 3.18387 55.1948 4.74629 55.1948 7.33628V13.8417H52.296V8.06785C52.296 6.72274 51.3367 5.85348 50.1974 5.85348C48.7381 5.85348 47.8385 7.01968 47.8385 8.4238V13.8417H44.9397V3.36184Z" fill="white"/>
<path d="M81.2126 3.36185L79.7732 10.9641L78.0345 3.36185H74.5552L72.8165 10.9641L71.378 3.36185H68.4792L70.878 13.8408H74.6357L76.2948 6.01179L77.954 13.8408H81.7117L84.1104 3.36185H81.2126Z" fill="white"/>
<path d="M95.1183 7.49364C94.5984 5.02261 92.3891 3.18292 89.7905 3.18292C86.7715 3.18292 84.3235 5.60431 84.3235 8.59052C84.3235 11.5767 86.7715 13.9981 89.7905 13.9981C91.7271 13.9981 93.9346 12.9912 94.7954 11.2939L92.2792 10.5773C91.6201 11.1702 90.6693 11.4671 89.7896 11.4671C88.5499 11.4671 87.5215 10.8742 87.1815 9.66773H95.1373C95.3172 8.9165 95.2774 8.16526 95.1174 7.4927L95.1183 7.49364ZM87.1825 7.49364C87.4827 6.56443 88.4306 5.7139 89.7905 5.7139C91.1504 5.7139 92.0197 6.56443 92.3199 7.49364H87.1825Z" fill="white"/>
<path d="M107.71 3.36184H109.79L110.609 4.76596C111.209 3.81708 112.409 3.00589 114.428 3.3225V6.3874C112.611 5.72515 110.609 6.56818 110.609 8.5821V13.8408H107.71V3.36184Z" fill="white"/>
<path d="M101.184 3.18292C98.5457 3.18292 96.3467 4.56737 96.3467 6.7424L99.1054 6.70306C99.4055 5.83286 100.325 5.61555 101.244 5.61555C102.424 5.61555 103.302 5.97149 103.302 6.94005V7.43463H100.284C97.9055 7.43463 96.1062 8.28516 96.1062 10.6578C96.1062 13.4258 98.6252 13.9991 100.124 13.9991C101.623 13.9991 102.802 13.3865 103.302 12.8329L103.891 13.8417H106.012V6.92881C106.012 4.30135 104.114 3.1848 101.185 3.1848L101.184 3.18292ZM100.364 11.6648C99.8847 11.6648 99.1044 11.5458 99.004 10.7356C98.9046 9.945 99.6044 9.45042 100.823 9.45042H103.301C103.301 10.7159 101.742 11.6648 100.363 11.6648H100.364Z" fill="white"/>
</svg>
