<svg width="151" height="48" viewBox="0 0 151 48" fill="none" xmlns="http://www.w3.org/2000/svg">
<path d="M12.0773 3.39226V13.989H10.8508V3.39226H12.0773ZM11.3591 7.09392V8.1105H8.43094V7.09392H11.3591ZM11.3591 10V10.9945H8.43094V10H11.3591ZM8.44199 5.09392V6.09945H0.574586V5.09392H8.44199ZM4.55249 6.86188C5.16759 6.86188 5.71271 6.97238 6.18785 7.19337C6.66667 7.41436 7.04052 7.7256 7.30939 8.12707C7.58195 8.52854 7.72007 8.99079 7.72376 9.51381C7.72007 10.0331 7.58195 10.4954 7.30939 10.9006C7.04052 11.302 6.66667 11.6133 6.18785 11.8343C5.70902 12.0552 5.1639 12.1657 4.55249 12.1657C3.93739 12.1657 3.38858 12.0552 2.90608 11.8343C2.42726 11.6133 2.05525 11.302 1.79006 10.9006C1.52855 10.4954 1.39963 10.0331 1.40331 9.51381C1.39963 8.99079 1.52855 8.52854 1.79006 8.12707C2.05525 7.7256 2.42726 7.41436 2.90608 7.19337C3.3849 6.97238 3.9337 6.86188 4.55249 6.86188ZM4.55249 7.83425C4.15838 7.83794 3.80847 7.9116 3.50276 8.05525C3.20074 8.19521 2.96501 8.39226 2.79558 8.64641C2.62983 8.89687 2.5488 9.186 2.55249 9.51381C2.5488 9.8453 2.62983 10.1381 2.79558 10.3923C2.96501 10.6464 3.20074 10.8435 3.50276 10.9834C3.80847 11.1234 4.15838 11.1934 4.55249 11.1934C4.94291 11.1934 5.28913 11.1234 5.59116 10.9834C5.89319 10.8435 6.12891 10.6464 6.29834 10.3923C6.47146 10.1381 6.55985 9.8453 6.56354 9.51381C6.55985 9.186 6.47146 8.89687 6.29834 8.64641C6.12891 8.39226 5.89319 8.19521 5.59116 8.05525C5.28913 7.9116 4.94291 7.83794 4.55249 7.83425ZM5.17127 3.38122V5.73481H3.9558V3.38122H5.17127ZM12.3978 15.9448V16.9613H3.09392V15.9448H12.3978ZM4.33149 13.0497V16.4309H3.09392V13.0497H4.33149ZM24.5541 5.64641V6.65193H20.4657V5.64641H24.5541ZM24.5762 8.39779V9.41436H20.4657V8.39779H24.5762ZM25.3055 3.38122V11.6133H24.079V3.38122H25.3055ZM20.8193 4.44199V10.6077H14.4436V4.44199H20.8193ZM15.6591 5.43646V9.60221H19.6149V5.43646H15.6591ZM20.6977 12.011C21.6554 12.011 22.4841 12.1142 23.1839 12.3204C23.8837 12.5267 24.4197 12.8269 24.7917 13.221C25.1637 13.6151 25.3497 14.0884 25.3497 14.6409C25.3497 15.186 25.1637 15.6538 24.7917 16.0442C24.4197 16.4346 23.8837 16.7311 23.1839 16.9337C22.4878 17.1363 21.6591 17.2376 20.6977 17.2376C19.7327 17.2376 18.9003 17.1363 18.2005 16.9337C17.5007 16.7311 16.9648 16.4346 16.5928 16.0442C16.2244 15.6538 16.0421 15.186 16.0458 14.6409C16.0421 14.0884 16.2263 13.6151 16.5983 13.221C16.974 12.8269 17.5099 12.5267 18.206 12.3204C18.9058 12.1142 19.7364 12.011 20.6977 12.011ZM20.6977 12.9724C19.9869 12.9761 19.3718 13.0442 18.8524 13.1768C18.3368 13.3057 17.9408 13.4954 17.6646 13.7459C17.392 13.9963 17.2576 14.2947 17.2613 14.6409C17.2576 14.9724 17.3939 15.2597 17.6701 15.5028C17.95 15.7459 18.3478 15.9337 18.8635 16.0663C19.3791 16.1989 19.9906 16.2652 20.6977 16.2652C21.4012 16.2652 22.0108 16.1989 22.5265 16.0663C23.0458 15.9337 23.4436 15.7459 23.7198 15.5028C23.9961 15.2597 24.1342 14.9724 24.1342 14.6409C24.1342 14.2947 23.9961 13.9963 23.7198 13.7459C23.4436 13.4954 23.0476 13.3057 22.532 13.1768C22.0163 13.0442 21.4049 12.9761 20.6977 12.9724ZM37.8817 3.38122V11.7459H36.6551V3.38122H37.8817ZM39.9701 7.07182V8.1326H37.5391V7.07182H39.9701ZM37.8817 12.5414V17.0829H29.1082V12.5414H37.8817ZM30.3126 13.5249V16.0773H36.6662V13.5249H30.3126ZM35.3292 4.86188V5.8674H27.0529V4.86188H35.3292ZM31.1966 6.56354C31.8522 6.56354 32.4323 6.66667 32.9369 6.87293C33.4415 7.07919 33.8319 7.36832 34.1082 7.74033C34.3881 8.11234 34.5299 8.54512 34.5336 9.03867C34.5299 9.53223 34.3881 9.96685 34.1082 10.3425C33.8319 10.7182 33.4415 11.0074 32.9369 11.2099C32.436 11.4125 31.8559 11.5138 31.1966 11.5138C30.5262 11.5138 29.9388 11.4125 29.4341 11.2099C28.9295 11.0074 28.5373 10.7182 28.2574 10.3425C27.9811 9.96685 27.8448 9.53223 27.8485 9.03867C27.8448 8.54512 27.9811 8.11234 28.2574 7.74033C28.5373 7.36832 28.9295 7.07919 29.4341 6.87293C29.9424 6.66667 30.5299 6.56354 31.1966 6.56354ZM31.1966 7.51381C30.762 7.51381 30.3789 7.57643 30.0474 7.70166C29.7159 7.82689 29.4599 8.00552 29.2795 8.23757C29.1027 8.46961 29.0161 8.73665 29.0198 9.03867C29.0161 9.34807 29.1027 9.61694 29.2795 9.8453C29.4599 10.0737 29.7141 10.2523 30.0419 10.3812C30.3734 10.5064 30.7583 10.5709 31.1966 10.5746C31.6275 10.5709 32.0051 10.5064 32.3292 10.3812C32.657 10.2523 32.9111 10.0737 33.0916 9.8453C33.2758 9.61694 33.3697 9.34807 33.3734 9.03867C33.3697 8.73665 33.2758 8.46961 33.0916 8.23757C32.9111 8.00552 32.657 7.82689 32.3292 7.70166C32.0014 7.57643 31.6238 7.51381 31.1966 7.51381ZM31.8043 3.27072V5.37016H30.5888V3.27072H31.8043ZM46.5684 3.62431C47.5997 3.62431 48.4818 3.71639 49.2148 3.90055C49.9477 4.08471 50.5076 4.35727 50.8943 4.71823C51.2811 5.07551 51.4744 5.51013 51.4744 6.0221C51.4744 6.54144 51.2811 6.98343 50.8943 7.34807C50.5076 7.70902 49.9477 7.98343 49.2148 8.17127C48.4818 8.35543 47.5997 8.44936 46.5684 8.45304C45.537 8.44936 44.6531 8.35543 43.9164 8.17127C43.1798 7.98343 42.6181 7.70902 42.2313 7.34807C41.8446 6.98343 41.6512 6.54144 41.6512 6.0221C41.6512 5.51013 41.8446 5.07551 42.2313 4.71823C42.6181 4.35727 43.1798 4.08471 43.9164 3.90055C44.6531 3.71639 45.537 3.62431 46.5684 3.62431ZM46.5684 4.55249C45.8096 4.55249 45.1558 4.61142 44.607 4.72928C44.0582 4.84715 43.6402 5.01657 43.3529 5.23757C43.0693 5.45488 42.9293 5.71639 42.933 6.0221C42.9293 6.33886 43.0693 6.60958 43.3529 6.83425C43.6402 7.05893 44.0564 7.22836 44.6015 7.34254C45.1466 7.45672 45.8022 7.51381 46.5684 7.51381C47.3382 7.51381 47.9956 7.45672 48.5407 7.34254C49.0895 7.22836 49.5076 7.05893 49.7949 6.83425C50.0822 6.60958 50.2258 6.33886 50.2258 6.0221C50.2258 5.71639 50.0822 5.45488 49.7949 5.23757C49.5076 5.01657 49.0877 4.84715 48.5352 4.72928C47.9864 4.61142 47.3308 4.55249 46.5684 4.55249ZM52.9109 9.39226V10.3867H40.2479V9.39226H52.9109ZM51.2755 11.5912V14.6961H43.0214V16.3978H41.817V13.7901H50.0711V12.5304H41.7838V11.5912H51.2755ZM51.6954 16.1436V17.116H41.817V16.1436H51.6954ZM68.3613 3.38122V10.8287H67.1348V3.38122H68.3613ZM60.5712 11.5359V13.2265H67.1458V11.5359H68.3613V17.0829H59.3668V11.5359H60.5712ZM60.5712 16.0773H67.1458V14.2099H60.5712V16.0773ZM60.8585 4.05525C61.5546 4.05157 62.1771 4.18416 62.7259 4.45304C63.2784 4.71823 63.7112 5.09576 64.0243 5.58564C64.3373 6.07182 64.4939 6.62615 64.4939 7.24862C64.4939 7.87109 64.3373 8.42541 64.0243 8.9116C63.7112 9.39411 63.2784 9.7698 62.7259 10.0387C62.1771 10.3039 61.5546 10.4346 60.8585 10.4309C60.1624 10.4346 59.5362 10.3039 58.9801 10.0387C58.4276 9.7698 57.9948 9.39226 57.6817 8.90608C57.3686 8.41989 57.2121 7.8674 57.2121 7.24862C57.2121 6.62615 57.3686 6.07182 57.6817 5.58564C57.9948 5.09576 58.4276 4.71823 58.9801 4.45304C59.5362 4.18416 60.1624 4.05157 60.8585 4.05525ZM60.8585 5.09392C60.3871 5.09024 59.9653 5.18048 59.5933 5.36464C59.2213 5.54512 58.9303 5.8011 58.7204 6.1326C58.5141 6.4604 58.4128 6.83241 58.4165 7.24862C58.4128 7.66482 58.5141 8.03867 58.7204 8.37017C58.9303 8.69797 59.2213 8.95396 59.5933 9.13812C59.9653 9.32228 60.3871 9.41436 60.8585 9.41436C61.3263 9.41436 61.7443 9.32228 62.1127 9.13812C62.4847 8.95396 62.7756 8.69797 62.9856 8.37017C63.1955 8.03867 63.3005 7.66482 63.3005 7.24862C63.3005 6.83241 63.1955 6.4604 62.9856 6.1326C62.7756 5.8011 62.4847 5.54512 62.1127 5.36464C61.7443 5.18048 61.3263 5.09024 60.8585 5.09392ZM80.8712 3.38122V17.2928H79.6446V3.38122H80.8712ZM83.1916 8.87293V9.90055H80.5949V8.87293H83.1916ZM71.8214 12.7735C73.1806 12.7735 74.3481 12.7385 75.3242 12.6685C76.3039 12.5985 77.2984 12.4715 78.3076 12.2873L78.4623 13.3481C77.431 13.5322 76.4218 13.6556 75.4347 13.7182C74.4476 13.7808 73.2432 13.8122 71.8214 13.8122H70.7275V12.7735H71.8214ZM77.2137 4.74033V5.74586H71.954V13.2486H70.7275V4.74033H77.2137ZM85.6242 14.9392L84.4197 19.1934H83.2595L84.1214 14.9392H85.6242ZM98.516 8.36464V9.40331H95.7867V8.36464H98.516ZM94.1845 7.38122C94.1808 8.33149 94.0445 9.25783 93.7757 10.1602C93.5105 11.0626 93.1293 11.8729 92.632 12.5912C92.1385 13.3057 91.562 13.8637 90.9027 14.2652L90.1182 13.3481C90.7444 12.9797 91.2913 12.4788 91.7591 11.8453C92.2269 11.2118 92.586 10.5083 92.8364 9.73481C93.0869 8.95764 93.2121 8.17311 93.2121 7.38122V4.68508H94.1845V7.38122ZM94.3945 7.32597C94.3945 8.06998 94.5123 8.81031 94.748 9.54696C94.9838 10.2836 95.3208 10.9576 95.7591 11.5691C96.2011 12.1805 96.7223 12.663 97.3226 13.0166L96.6155 13.9669C95.9598 13.5727 95.3926 13.0276 94.9138 12.3315C94.435 11.6317 94.0703 10.8471 93.8199 9.9779C93.5731 9.10866 93.4515 8.22468 93.4552 7.32597V4.68508H94.3945V7.32597ZM102.173 3.38122V17.2707H100.991V3.38122H102.173ZM99.3005 3.67956V16.5635H98.1403V3.67956H99.3005ZM113.998 7.81215V8.83978H110.694V7.81215H113.998ZM110.717 4.49724C110.713 5.72007 110.49 6.8232 110.048 7.80663C109.61 8.79005 108.921 9.6593 107.982 10.4144C107.042 11.1657 105.84 11.7864 104.374 12.2762L103.877 11.2928C105.181 10.8619 106.243 10.3352 107.065 9.71271C107.886 9.08656 108.486 8.37753 108.866 7.58564C109.249 6.79374 109.442 5.91529 109.446 4.95028V4.49724H110.717ZM110.153 4.49724V5.51381H104.496V4.49724H110.153ZM109.402 7.98895L104.009 8.43094L103.799 7.41436L109.402 7.14917V7.98895ZM115.015 3.39226V13.7017H113.788V3.39226H115.015ZM115.413 15.9448V16.9613H106.241V15.9448H115.413ZM107.479 12.674V16.4972H106.241V12.674H107.479ZM120.265 4.26519C120.847 4.26888 121.368 4.37937 121.829 4.59668C122.289 4.81031 122.648 5.11234 122.906 5.50276C123.167 5.89319 123.3 6.33886 123.304 6.83978C123.3 7.3407 123.167 7.78453 122.906 8.17127C122.648 8.55801 122.289 8.86004 121.829 9.07735C121.368 9.29098 120.847 9.39595 120.265 9.39226C119.679 9.39595 119.155 9.29098 118.69 9.07735C118.23 8.86004 117.869 8.55801 117.608 8.17127C117.35 7.78453 117.223 7.3407 117.226 6.83978C117.223 6.33886 117.35 5.89319 117.608 5.50276C117.869 5.11234 118.23 4.81031 118.69 4.59668C119.155 4.37937 119.679 4.26888 120.265 4.26519ZM120.265 5.21547C119.893 5.21179 119.56 5.27993 119.265 5.41989C118.974 5.55617 118.746 5.74954 118.58 6C118.414 6.24678 118.331 6.5267 118.331 6.83978C118.331 7.15285 118.412 7.43462 118.574 7.68508C118.737 7.93186 118.965 8.12523 119.26 8.26519C119.554 8.40147 119.889 8.47145 120.265 8.47514C120.637 8.47145 120.969 8.39963 121.26 8.25967C121.554 8.11602 121.784 7.92265 121.95 7.67956C122.116 7.43278 122.199 7.15285 122.199 6.83978C122.199 6.5267 122.116 6.24678 121.95 6C121.784 5.74954 121.554 5.55617 121.26 5.41989C120.969 5.27993 120.637 5.21179 120.265 5.21547ZM128.552 3.38122V17.2707H127.381V3.38122H128.552ZM125.9 3.69061V16.5304H124.74V3.69061H125.9ZM125.171 12.4862V13.4586H122.11V12.4862H125.171ZM120.773 11.0055V16.1326H119.613V11.0055H120.773ZM116.541 10.4751C117.97 10.4751 119.295 10.453 120.514 10.4088C121.737 10.361 122.847 10.2578 123.845 10.0994L123.934 11.0276C122.895 11.2302 121.772 11.3628 120.563 11.4254C119.359 11.4843 118.074 11.5138 116.707 11.5138L116.541 10.4751ZM133.692 4.45304C134.366 4.45672 134.965 4.65746 135.488 5.05525C136.014 5.44935 136.423 6.01289 136.714 6.74586C137.009 7.47514 137.158 8.32413 137.162 9.29282C137.158 10.2652 137.009 11.116 136.714 11.8453C136.423 12.5746 136.014 13.1381 135.488 13.5359C134.965 13.9337 134.366 14.1326 133.692 14.1326C133.011 14.1326 132.405 13.9337 131.874 13.5359C131.348 13.1381 130.937 12.5746 130.642 11.8453C130.351 11.116 130.208 10.2652 130.211 9.29282C130.208 8.32413 130.351 7.47514 130.642 6.74586C130.937 6.01289 131.348 5.44935 131.874 5.05525C132.405 4.65746 133.011 4.45672 133.692 4.45304ZM133.692 5.54696C133.239 5.55064 132.838 5.70902 132.488 6.0221C132.141 6.33149 131.871 6.7698 131.676 7.33702C131.48 7.90055 131.383 8.55249 131.383 9.29282C131.383 10.0368 131.48 10.6924 131.676 11.2597C131.871 11.8269 132.141 12.2652 132.488 12.5746C132.838 12.884 133.239 13.0387 133.692 13.0387C134.141 13.0387 134.541 12.884 134.891 12.5746C135.241 12.2652 135.513 11.8269 135.709 11.2597C135.904 10.6924 136.001 10.0368 136.001 9.29282C136.001 8.55249 135.904 7.90055 135.709 7.33702C135.513 6.7698 135.241 6.33149 134.891 6.0221C134.541 5.70902 134.141 5.55064 133.692 5.54696ZM141.471 3.38122V17.2928H140.256V3.38122H141.471ZM140.797 8.68508V9.70166H136.753V8.68508H140.797Z" fill="#21272A"/>
<g clip-path="url(#clip0_593_6132)">
<path d="M1.12166 46.2258V42.3837C2.15822 43.2178 5.02708 44.6787 7.23428 44.6787C8.15167 44.6787 9.29375 44.5052 9.29375 43.6773C9.29375 42.8495 8.04366 42.5436 5.88488 42.0966C2.62002 41.4111 1 40.2249 1 37.9312C1 35.1642 3.48279 33.5822 6.96365 33.5822C9.31113 33.5822 10.946 34.1528 12.4692 35.133V38.4581C9.86603 36.8723 7.88104 36.8511 6.96365 36.8511C5.46281 36.8511 4.93025 37.3518 4.93025 37.9049C4.93025 38.8539 6.77496 38.9063 8.71774 39.407C11.8758 40.2236 13.1979 41.6995 13.1979 43.756C13.1979 47.0249 9.87844 47.9988 7.23428 47.9988C5.41688 47.9988 3.19354 47.5143 1.12166 46.2245V46.2258Z" fill="#21272A"/>
<path d="M51.3506 33.5822C47.3931 33.5822 44.1841 36.8099 44.1841 40.7905C44.1841 44.7711 47.3931 47.9988 51.3506 47.9988C55.3082 47.9988 58.5172 44.7711 58.5172 40.7905C58.5172 36.8099 55.3082 33.5822 51.3506 33.5822ZM51.3506 44.5201C49.3061 44.5201 47.7345 42.7808 47.7345 40.778C47.7345 38.7752 49.3061 37.0621 51.3506 37.0621C53.3952 37.0621 54.9668 38.749 54.9668 40.778C54.9668 42.807 53.3952 44.5201 51.3506 44.5201Z" fill="#21272A"/>
<path d="M36.7845 44.5201C34.7412 44.5201 33.1683 42.7808 33.1683 40.778C33.1683 38.7752 34.7399 37.0621 36.7845 37.0621C38.2257 37.0621 39.3393 37.9312 39.8904 39.171L43.349 38.1697C42.3012 35.4551 39.7725 33.5835 36.7845 33.5835C32.8269 33.5835 29.6179 36.8112 29.6179 40.7918C29.6179 44.7724 32.8269 48.0001 36.7845 48.0001C39.8247 48.0001 42.3261 46.1021 43.349 43.4401L39.8904 42.4387C39.3666 43.6773 38.2531 44.5201 36.7845 44.5201Z" fill="#21272A"/>
<path d="M28.3242 39.3284C27.6427 36.0345 24.7465 33.5822 21.3401 33.5822C17.3826 33.5822 14.1736 36.8099 14.1736 40.7905C14.1736 44.7711 17.3826 47.9988 21.3401 47.9988C23.8788 47.9988 26.7725 46.6565 27.9009 44.394L24.6025 43.4388C23.7385 44.2292 22.4922 44.625 21.3389 44.625C19.7139 44.625 18.3658 43.8346 17.9201 42.2264H28.3491C28.5849 41.225 28.5328 40.2236 28.323 39.3271L28.3242 39.3284ZM17.9213 39.3284C18.3149 38.0897 19.5575 36.956 21.3401 36.956C23.1228 36.956 24.2624 38.0897 24.6559 39.3284H17.9213Z" fill="#21272A"/>
<path d="M85.4358 29.3394V35.1117C84.5109 34.1253 83.1826 33.5834 81.611 33.5834C77.8633 33.5834 74.7449 36.7462 74.7449 40.8054C74.7449 44.8647 77.8633 48.0013 81.611 48.0013C83.1826 48.0013 84.5122 47.4319 85.4358 46.4467L86.2079 47.7915H89.2357V29.3394H85.4358ZM81.9772 44.5476C79.8544 44.5476 78.2828 42.8082 78.2828 40.8054C78.2828 38.8027 79.8544 37.0371 81.9772 37.0371C84.1 37.0371 85.6977 38.8027 85.6977 40.8054C85.6977 42.8082 83.9945 44.5476 81.9772 44.5476Z" fill="#21272A"/>
<path d="M59.9104 33.8207H62.9692L63.7103 35.1118C64.6016 34.2415 65.8852 33.5835 67.5884 33.5835C70.6013 33.5835 73.3535 35.6662 73.3535 39.1186V47.7903H69.5535V40.0938C69.5535 38.3008 68.296 37.142 66.8026 37.142C64.8896 37.142 63.7103 38.6966 63.7103 40.5683V47.7903H59.9104V33.8207Z" fill="#21272A"/>
<path d="M107.459 33.8206L105.572 43.9545L103.293 33.8206H98.7324L96.4532 43.9545L94.5675 33.8206H90.7676L93.912 47.789H98.8379L101.013 37.353L103.188 47.789H108.114L111.258 33.8206H107.459Z" fill="#21272A"/>
<path d="M125.688 39.3284C125.006 36.0345 122.11 33.5822 118.704 33.5822C114.746 33.5822 111.537 36.8099 111.537 40.7905C111.537 44.7711 114.746 47.9988 118.704 47.9988C121.243 47.9988 124.136 46.6565 125.265 44.394L121.966 43.4388C121.102 44.2292 119.856 44.625 118.703 44.625C117.078 44.625 115.73 43.8346 115.284 42.2264H125.713C125.949 41.225 125.897 40.2236 125.687 39.3271L125.688 39.3284ZM115.285 39.3284C115.679 38.0897 116.921 36.956 118.704 36.956C120.487 36.956 121.626 38.0897 122.02 39.3284H115.285Z" fill="#21272A"/>
<path d="M142.195 33.8207H144.921L145.994 35.6923C146.78 34.4275 148.353 33.3462 151 33.7682V37.8537C148.619 36.9709 145.994 38.0947 145.994 40.7792V47.789H142.195V33.8207Z" fill="#21272A"/>
<path d="M133.639 33.5822C130.18 33.5822 127.298 35.4277 127.298 38.327L130.914 38.2745C131.308 37.1146 132.513 36.8249 133.717 36.8249C135.264 36.8249 136.416 37.2994 136.416 38.5904V39.2497H132.46C129.341 39.2497 126.983 40.3835 126.983 43.5462C126.983 47.2359 130.285 48 132.25 48C134.215 48 135.761 47.1835 136.416 46.4455L137.188 47.7903H139.968V38.5742C139.968 35.0718 137.48 33.5835 133.64 33.5835L133.639 33.5822ZM132.564 44.8885C131.936 44.8885 130.913 44.7299 130.781 43.6499C130.651 42.596 131.568 41.9367 133.166 41.9367H136.415C136.415 43.6236 134.37 44.8885 132.563 44.8885H132.564Z" fill="#21272A"/>
</g>
<defs>
<clipPath id="clip0_593_6132">
<rect width="150" height="18.6607" fill="white" transform="translate(1 29.3394)"/>
</clipPath>
</defs>
</svg>
