<svg width="100" height="100" viewBox="0 0 100 100" fill="none" xmlns="http://www.w3.org/2000/svg">
<g clip-path="url(#clip0_1_34388)">
<rect width="100" height="100" rx="50" fill="#E6E9EE"/>
<path d="M49 65.1668C28.4711 65.1668 8.83337 78.8335 2.33337 98.5001C14.5317 108.133 31.8926 107.667 49 107.667C66.1075 107.667 86.8017 110.133 99 100.5C93 78.3335 69.529 65.1668 49 65.1668Z" fill="white"/>
<path d="M48.9998 57.6668C58.6648 57.6668 66.4998 49.8318 66.4998 40.1668C66.4998 30.5018 58.6648 22.6668 48.9998 22.6668C39.3349 22.6668 31.4998 30.5018 31.4998 40.1668C31.4998 49.8318 39.3349 57.6668 48.9998 57.6668Z" fill="white"/>
</g>
<rect x="0.156938" y="0.156938" width="99.6861" height="99.6861" rx="49.8431" stroke="#DCE0E5" stroke-width="0.313875"/>
<defs>
<clipPath id="clip0_1_34388">
<rect width="100" height="100" rx="50" fill="white"/>
</clipPath>
</defs>
</svg>
